<?xml version="1.0" encoding="utf-8"?>
<svg xmlns="http://www.w3.org/2000/svg" xmlns:svg="http://www.w3.org/2000/svg" version="1.1" viewBox="0 0 1400 340">
	<title>The titlepage for the Standard Ebooks edition of The Moon Pool, by Abraham Merritt</title>
	<g aria-label="THE MOON POOL">
		<path d="M 249.97002,68.245613 H 268.3092 V 130 h 17.59065 V 68.245613 h 18.33918 V 52.807016 h -54.26901 z"/>
		<path d="m 333.16447,99.029239 h 24.88889 V 130 H 375.644 V 52.807016 H 358.05336 V 83.590642 H 333.16447 V 52.807016 H 315.57382 V 130 h 17.59065 z"/>
		<path d="M 436.0095,52.807016 H 391.84576 V 130 H 436.0095 V 114.5614 H 409.4364 V 99.029239 h 25.45029 V 83.590642 H 409.4364 V 68.245613 h 26.5731 z"/>
		<path d="m 545.51974,130 h 17.59064 L 556.18641,52.807016 H 537.47295 L 520.35015,97.345029 503.22734,52.807016 H 484.51389 L 477.58991,130 h 17.59065 l 3.64912,-45.754387 h 0.46784 l 15.81286,45.286547 h 10.47953 l 15.81287,-45.286547 h 0.46784 z"/>
		<path d="m 571.69519,91.356724 c 0,22.549706 16.09356,40.046786 38.92397,40.046786 22.17544,0 38.83041,-17.49708 38.83041,-40.046786 0,-22.549708 -17.40351,-39.953217 -38.83041,-39.953217 -21.23976,0 -38.92397,17.403509 -38.92397,39.953217 z m 18.99415,0 c 0,-11.508772 6.36257,-23.017544 19.92982,-23.017544 13.66082,0 19.83626,11.508772 19.83626,23.017544 0,11.508776 -5.80117,23.017546 -19.83626,23.017546 -14.40935,0 -19.92982,-11.50877 -19.92982,-23.017546 z"/>
		<path d="m 658.74926,91.356724 c 0,22.549706 16.09357,40.046786 38.92398,40.046786 22.17544,0 38.83041,-17.49708 38.83041,-40.046786 0,-22.549708 -17.40351,-39.953217 -38.83041,-39.953217 -21.23977,0 -38.92398,17.403509 -38.92398,39.953217 z m 18.99416,0 c 0,-11.508772 6.36257,-23.017544 19.92982,-23.017544 13.66082,0 19.83626,11.508772 19.83626,23.017544 0,11.508776 -5.80117,23.017546 -19.83626,23.017546 -14.40936,0 -19.92982,-11.50877 -19.92982,-23.017546 z"/>
		<path d="m 766.856,82.093566 h 0.18714 L 797.7332,130 h 17.59064 V 52.807016 H 797.7332 v 47.906434 h -0.18714 L 766.856,52.807016 H 749.26536 V 130 H 766.856 Z"/>
		<path d="M 862.15278,52.807016 V 130 h 17.59064 v -28.63158 h 10.5731 c 15.06433,0 26.38597,-8.888888 26.38597,-24.795322 0,-16 -11.32164,-23.766082 -26.38597,-23.766082 z m 17.59064,34.526317 V 66.842104 h 4.95907 c 6.92397,0 13.47368,2.339181 13.47368,10.292398 0,7.859649 -6.54971,10.198831 -13.47368,10.198831 z"/>
		<path d="m 926.00805,91.356724 c 0,22.549706 16.09357,40.046786 38.92398,40.046786 22.17544,0 38.83037,-17.49708 38.83037,-40.046786 0,-22.549708 -17.40347,-39.953217 -38.83037,-39.953217 -21.23977,0 -38.92398,17.403509 -38.92398,39.953217 z m 18.99415,0 c 0,-11.508772 6.36258,-23.017544 19.92983,-23.017544 13.66082,0 19.83626,11.508772 19.83626,23.017544 0,11.508776 -5.80117,23.017546 -19.83626,23.017546 -14.40936,0 -19.92983,-11.50877 -19.92983,-23.017546 z"/>
		<path d="m 1013.0621,91.356724 c 0,22.549706 16.0936,40.046786 38.924,40.046786 22.1754,0 38.8304,-17.49708 38.8304,-40.046786 0,-22.549708 -17.4035,-39.953217 -38.8304,-39.953217 -21.2398,0 -38.924,17.403509 -38.924,39.953217 z m 18.9942,0 c 0,-11.508772 6.3626,-23.017544 19.9298,-23.017544 13.6608,0 19.8363,11.508772 19.8363,23.017544 0,11.508776 -5.8012,23.017546 -19.8363,23.017546 -14.4094,0 -19.9298,-11.50877 -19.9298,-23.017546 z"/>
		<path d="m 1121.1688,52.807016 h -17.5906 V 130 h 44.1637 v -15.4386 h -26.5731 z"/>
	</g>
	<g aria-label="ABRAHAM MERRITT">
		<path d="M 342.9397,232.10526 H 330.72917 L 307.36075,290 h 14.17544 l 4.2807,-11.57895 h 22.03509 L 352.13268,290 h 14.17544 z m 0.42105,34.73685 H 330.30812 L 336.76426,250 h 0.14035 z"/>
		<path d="M 373.49781,232.10526 V 290 h 21.96491 c 12,0 18.94737,-6.59649 18.94737,-16.14035 0,-9.33333 -5.1228,-13.33333 -12.35088,-14.59649 4.91229,-2.52632 7.22808,-7.08772 7.22808,-12.42105 0,-11.01755 -7.85965,-14.73685 -17.82457,-14.73685 z m 13.19298,22.66667 V 242.2807 h 1.05264 c 5.75438,0 8.77193,1.75439 8.77193,5.89474 0,4.8421 -3.08772,6.59649 -8.77193,6.59649 z m 0,25.05263 v -13.68421 h 4.14035 c 6.24562,0 9.68422,1.89474 9.68422,7.22807 0,4.5614 -3.4386,6.45614 -9.68422,6.45614 z"/>
		<path d="M 425.23575,232.10526 V 290 h 13.19298 V 267.12281 L 456.11294,290 h 16.77193 l -19.92982,-23.92982 c 7.08772,-2.24562 11.85965,-8.07018 11.85965,-16.77193 0,-11.36842 -8.14035,-17.19299 -18.8772,-17.19299 z m 13.19298,25.68421 v -15.15789 h 1.54386 c 4.98246,0 10.94737,0.35088 10.94737,7.57895 0,7.22807 -5.96491,7.57894 -10.94737,7.57894 z"/>
		<path d="M 509.94079,232.10526 H 497.73027 L 474.36185,290 h 14.17544 l 4.2807,-11.57895 h 22.03509 L 519.13378,290 h 14.17544 z m 0.42106,34.73685 H 497.30922 L 503.76536,250 h 0.14035 z"/>
		<path d="m 553.69189,266.77193 h 18.66667 V 290 h 13.19298 v -57.89474 h -13.19298 v 23.08772 H 553.69189 V 232.10526 H 540.49891 V 290 h 13.19298 z"/>
		<path d="M 628.35635,232.10526 H 616.14583 L 592.77741,290 h 14.17543 l 4.28071,-11.57895 h 22.03508 L 637.54933,290 h 14.17544 z m 0.42106,34.73685 H 615.72477 L 622.18091,250 h 0.14035 z"/>
		<path d="m 706.77413,290 h 13.19298 l -5.19298,-57.89474 h -14.03509 l -12.8421,33.40351 -12.84211,-33.40351 H 661.01975 L 655.82676,290 h 13.19299 l 2.73684,-34.31579 h 0.35088 l 11.85964,33.96491 h 7.85965 l 11.85965,-33.96491 h 0.35088 z"/>
		<path d="m 802.30044,290 h 13.19298 l -5.19298,-57.89474 h -14.03509 l -12.8421,33.40351 -12.84211,-33.40351 H 756.54605 L 751.35307,290 h 13.19298 l 2.73684,-34.31579 h 0.35088 l 11.85965,33.96491 h 7.85965 l 11.85965,-33.96491 h 0.35088 z"/>
		<path d="M 858.9013,232.10526 H 825.7785 V 290 h 33.1228 v -11.57895 h -19.92982 v -11.64912 h 19.08772 v -11.57895 h -19.08772 v -11.50877 h 19.92982 z"/>
		<path d="M 871.48571,232.10526 V 290 h 13.19298 V 267.12281 L 902.3629,290 h 16.77193 l -19.92982,-23.92982 c 7.08772,-2.24562 11.85965,-8.07018 11.85965,-16.77193 0,-11.36842 -8.14035,-17.19299 -18.87719,-17.19299 z m 13.19298,25.68421 v -15.15789 h 1.54386 c 4.98246,0 10.94737,0.35088 10.94737,7.57895 0,7.22807 -5.96491,7.57894 -10.94737,7.57894 z"/>
		<path d="M 926.78729,232.10526 V 290 h 13.19298 V 267.12281 L 957.66448,290 h 16.77193 l -19.92983,-23.92982 c 7.08772,-2.24562 11.85965,-8.07018 11.85965,-16.77193 0,-11.36842 -8.14035,-17.19299 -18.87719,-17.19299 z m 13.19298,25.68421 v -15.15789 h 1.54386 c 4.98245,0 10.94737,0.35088 10.94737,7.57895 0,7.22807 -5.96492,7.57894 -10.94737,7.57894 z"/>
		<path d="M 995.28178,232.10526 H 982.0888 V 290 h 13.19298 z"/>
		<path d="m 1001.6689,243.68421 h 13.7543 V 290 h 13.193 v -46.31579 h 13.7544 v -11.57895 h -40.7017 z"/>
		<path d="m 1049.432,243.68421 h 13.7544 V 290 h 13.193 v -46.31579 h 13.7543 v -11.57895 h -40.7017 z"/>
	</g>
</svg>
